<?xml version="1.0" standalone="no"?>
<!DOCTYPE svg PUBLIC "-//W3C//DTD SVG 20010904//EN"
 "http://www.w3.org/TR/2001/REC-SVG-20010904/DTD/svg10.dtd">
<svg version="1.0" xmlns="http://www.w3.org/2000/svg"
 width="700.000000pt" height="700.000000pt" viewBox="0 0 700.000000 700.000000"
 preserveAspectRatio="xMidYMid meet">
<metadata>
Created by potrace 1.14, written by Peter Selinger 2001-2017
</metadata>
<g transform="translate(0.000000,700.000000) scale(0.100000,-0.100000)"
fill="#000000" stroke="none">
<path d="M3180 6709 c-539 -59 -1024 -234 -1470 -531 -136 -90 -358 -267 -424
-337 l-30 -31 515 0 514 0 655 -1014 c360 -558 658 -1012 661 -1008 3 4 315
460 693 1015 l688 1007 382 0 381 1 -70 66 c-378 357 -885 626 -1429 758 -252
61 -387 77 -701 80 -154 2 -318 -1 -365 -6z"/>
<path d="M729 5148 c-213 -358 -353 -755 -421 -1193 -29 -188 -36 -576 -14
-785 54 -514 226 -1001 502 -1422 l63 -98 53 20 c75 29 181 104 233 164 25 28
60 82 79 121 61 123 66 174 66 637 l0 414 -66 64 c-36 36 -138 141 -227 233
l-161 168 227 227 227 227 0 370 c0 392 -9 502 -49 618 -60 171 -173 279 -338
322 -105 28 -105 28 -174 -87z"/>
<path d="M6163 5175 c-76 -21 -129 -50 -185 -103 -56 -52 -88 -102 -120 -188
-22 -57 -22 -73 -26 -495 l-3 -436 232 -236 c208 -213 230 -239 218 -255 -8
-9 -112 -122 -232 -249 l-218 -233 4 -432 c3 -375 6 -441 21 -492 42 -142 126
-261 237 -337 32 -21 61 -39 64 -39 3 0 30 37 59 82 275 424 449 935 497 1461
17 182 6 565 -19 732 -64 415 -191 786 -384 1127 -39 68 -67 108 -77 107 -9 0
-40 -7 -68 -14z"/>
<path d="M1953 3173 c3 -1159 -1 -1080 68 -1223 47 -96 167 -211 284 -271 50
-26 118 -57 153 -69 l62 -23 0 -227 c0 -228 0 -228 -22 -234 -13 -3 -270 -9
-573 -12 -302 -3 -556 -8 -563 -10 -8 -2 16 -29 60 -67 501 -425 1125 -685
1791 -748 182 -17 574 -7 742 19 645 100 1201 357 1680 777 l30 27 -535 -3
c-294 -1 -662 -2 -817 -1 l-283 2 0 229 0 229 68 12 c247 46 435 199 529 430
54 134 53 127 51 1095 l-3 895 -669 -892 c-654 -872 -669 -891 -686 -871 -9
12 -319 463 -689 1002 -370 540 -675 981 -677 981 -3 0 -3 -471 -1 -1047z"/>
</g>
</svg>
